<svg width="79" height="24" viewBox="0 0 79 24" fill="none" xmlns="http://www.w3.org/2000/svg">
<path d="M13.264 0.631999C13.552 0.631999 13.952 0.663999 14.464 0.727999V6.632L13.792 6.872C13.248 6.648 12.656 6.536 12.016 6.536C10.16 6.536 8.48 7.736 6.976 10.136V13.16L7.312 23H0.928L1.312 13.784L1.024 1.112L7.072 0.584L7.024 4.952H7.408C8.976 2.072 10.928 0.631999 13.264 0.631999Z" fill="white"/>
<path d="M25.1035 0.295999C27.2795 0.295999 29.3275 0.663999 31.2475 1.4L30.3835 6.104L29.6155 6.344C28.6875 5.736 27.7595 5.272 26.8315 4.952C25.9035 4.632 25.0875 4.472 24.3835 4.472C23.6155 4.472 23.0075 4.68 22.5595 5.096C22.1115 5.48 21.8875 5.96 21.8875 6.536C21.8875 7.208 22.1755 7.752 22.7515 8.168C23.3595 8.584 24.3035 9.048 25.5835 9.56C26.8635 10.072 27.9195 10.568 28.7515 11.048C29.5835 11.528 30.2875 12.2 30.8635 13.064C31.4715 13.896 31.7755 14.936 31.7755 16.184C31.7755 17.464 31.4395 18.664 30.7675 19.784C30.1275 20.872 29.1355 21.768 27.7915 22.472C26.4475 23.144 24.7995 23.48 22.8475 23.48C20.5435 23.48 18.1595 23 15.6955 22.04L16.4155 17.048L17.0395 16.664C18.0315 17.496 19.1355 18.168 20.3515 18.68C21.5675 19.16 22.6395 19.4 23.5675 19.4C24.4315 19.4 25.1035 19.192 25.5835 18.776C26.0635 18.328 26.3035 17.8 26.3035 17.192C26.3035 16.52 25.9995 15.976 25.3915 15.56C24.8155 15.144 23.8875 14.68 22.6075 14.168C21.2955 13.592 20.2235 13.08 19.3915 12.632C18.5595 12.152 17.8395 11.48 17.2315 10.616C16.6555 9.752 16.3675 8.68 16.3675 7.4C16.3675 5.32 17.1515 3.624 18.7195 2.312C20.2875 0.967999 22.4155 0.295999 25.1035 0.295999ZM44.8214 0.247998C47.2854 0.247998 49.2054 0.807999 50.5814 1.928C51.9894 3.016 52.6934 4.552 52.6934 6.536C52.6934 7.112 52.5974 8.936 52.4054 12.008C52.3734 12.904 52.3254 13.832 52.2614 14.792C52.1974 15.72 52.1654 16.52 52.1654 17.192C52.1654 17.736 52.2454 18.12 52.4054 18.344C52.5654 18.536 52.8534 18.632 53.2694 18.632C53.5894 18.632 54.0054 18.568 54.5174 18.44L54.9974 18.824L54.4214 22.184C53.3974 22.856 52.2294 23.256 50.9174 23.384C49.9574 23.288 49.1574 22.952 48.5174 22.376C47.8774 21.768 47.4454 20.936 47.2214 19.88H46.8854C45.2854 21.576 43.6374 22.76 41.9414 23.432C39.6374 23.4 37.8294 22.792 36.5174 21.608C35.2054 20.424 34.5494 18.808 34.5494 16.76C34.5494 15.16 34.9494 13.912 35.7494 13.016C36.5814 12.088 37.8294 11.464 39.4934 11.144L46.8374 9.752V7.784C46.8374 5.704 45.8134 4.664 43.7654 4.664C42.7734 4.664 41.7174 4.888 40.5974 5.336C39.5094 5.784 38.2774 6.488 36.9014 7.448L36.4214 7.16L35.7014 2.936C37.0774 2.072 38.5494 1.416 40.1174 0.967999C41.6854 0.487998 43.2534 0.247998 44.8214 0.247998ZM41.7014 14.072C41.1894 14.2 40.8054 14.424 40.5494 14.744C40.3254 15.032 40.2134 15.48 40.2134 16.088C40.2134 16.92 40.4374 17.576 40.8854 18.056C41.3334 18.504 41.9574 18.728 42.7574 18.728C44.0054 18.728 45.3174 17.992 46.6934 16.52L46.7894 12.968L41.7014 14.072ZM72.5935 9.08C72.6255 7.96 72.3695 7.096 71.8255 6.488C71.3135 5.848 70.5615 5.528 69.5695 5.528C68.1295 5.528 66.5935 6.216 64.9615 7.592V13.16L65.2495 23H58.8655L59.2015 13.784L58.9615 1.112L65.0095 0.584V3.848H65.3455C67.1055 2.248 69.0255 1.096 71.1055 0.391999C73.5375 0.391999 75.3935 0.951999 76.6735 2.072C77.9535 3.16 78.5615 4.744 78.4975 6.824L78.3535 13.208L78.6415 23H72.2095L72.5935 9.08Z" fill="white" fill-opacity="0.8"/>
</svg>
